<svg xmlns="http://www.w3.org/2000/svg" width="22" height="23" viewBox="0 0 22 23">
    <path fill="#FFF" fill-rule="nonzero" stroke="#FFF" stroke-width=".3" d="M6.698 15.144h11.837a2.442 2.442 0 0 0 2.437-2.437v-4.98-.018-.035c0-.009 0-.018-.004-.026 0-.01-.005-.022-.005-.031 0-.01-.004-.018-.004-.027-.005-.009-.005-.017-.009-.03-.004-.01-.004-.018-.009-.027-.004-.009-.004-.018-.009-.027l-.013-.03c-.004-.01-.009-.018-.013-.023l-.013-.026c-.005-.009-.01-.013-.014-.022s-.013-.018-.017-.027c-.005-.009-.01-.013-.018-.022-.004-.009-.013-.013-.018-.022-.004-.009-.013-.013-.017-.022-.005-.009-.013-.013-.018-.018l-.022-.022c-.009-.004-.013-.013-.022-.017-.009-.005-.018-.014-.027-.018-.008-.004-.013-.009-.022-.013-.008-.005-.017-.009-.026-.018l-.027-.013-.026-.013-.027-.014c-.008-.004-.017-.004-.026-.008a.082.082 0 0 0-.03-.01c-.01 0-.019-.004-.023-.004-.013-.004-.022-.004-.035-.004-.005 0-.01-.005-.018-.005L5.458 5.065V2.972c0-.022 0-.044-.005-.062 0-.004 0-.008-.004-.017 0-.014-.004-.027-.004-.04-.005-.013-.005-.022-.01-.035 0-.01-.004-.014-.004-.022l-.013-.04c0-.005-.004-.013-.004-.018a.132.132 0 0 0-.018-.035c-.004-.005-.004-.013-.009-.018a.092.092 0 0 0-.018-.026c-.004-.01-.008-.014-.013-.022-.004-.01-.009-.014-.013-.022-.004-.01-.013-.018-.018-.027l-.013-.013-.026-.027-.014-.013c-.008-.009-.017-.018-.03-.026l-.018-.014c-.009-.009-.018-.013-.027-.022a.407.407 0 0 0-.035-.022c-.004-.004-.009-.004-.013-.009l-.058-.026-3.254-1.369a.595.595 0 0 0-.781.318.595.595 0 0 0 .318.782L4.26 3.365V16.425a2.44 2.44 0 0 0 2.124 2.415 2.408 2.408 0 0 0-.344 1.236 2.409 2.409 0 0 0 2.406 2.406 2.412 2.412 0 0 0 2.406-2.406c0-.442-.12-.861-.331-1.214h5.36a2.372 2.372 0 0 0-.331 1.214 2.409 2.409 0 0 0 2.406 2.406 2.412 2.412 0 0 0 2.406-2.406 2.412 2.412 0 0 0-2.406-2.406H6.698c-.688 0-1.245-.561-1.245-1.245v-1.616c.362.212.79.335 1.245.335zm2.967 4.927c0 .672-.547 1.215-1.214 1.215a1.22 1.22 0 0 1-1.214-1.215 1.22 1.22 0 0 1 1.214-1.214c.667 0 1.214.543 1.214 1.214zm9.51 0c0 .672-.547 1.215-1.214 1.215a1.22 1.22 0 0 1-1.214-1.215 1.22 1.22 0 0 1 1.214-1.214c.667 0 1.214.543 1.214 1.214zm-.64-6.119H6.698c-.688 0-1.245-.56-1.245-1.245V6.266L19.78 8.239v4.464c0 .693-.56 1.25-1.245 1.25z"/>
</svg>
