<svg xmlns="http://www.w3.org/2000/svg" width="474" height="1172" viewBox="0 0 474 1172">
    <defs>
        <linearGradient id="a" x1="58.899%" x2="41.361%" y1="-1.236%" y2="100%">
            <stop offset="0%" stop-color="#4E3CE1"/>
            <stop offset="50.399%" stop-color="#1831AA"/>
            <stop offset="100%" stop-color="#4E3CE1"/>
        </linearGradient>
        <linearGradient id="b" x1="50%" x2="50%" y1="1.431%" y2="100%">
            <stop offset="0%" stop-color="#2A37C1"/>
            <stop offset="59.51%" stop-color="#6D6CFB" stop-opacity=".148"/>
            <stop offset="80.089%" stop-color="#9B9AF4" stop-opacity=".059"/>
            <stop offset="100%" stop-color="#B5B4FF" stop-opacity="0"/>
        </linearGradient>
    </defs>
    <g fill="none" fill-rule="evenodd">
        <path stroke="url(#a)" stroke-dasharray="15,15" stroke-linecap="round" stroke-linejoin="round" stroke-width="2" d="M446.52 36c40 72.667 30.666 115-28 127-88 18-312.46-90.122-388.52 62-59 118 3.061 260.792 145 398 30 29 62 176-9 267S23 930 30 1150" opacity=".746" transform="translate(-3 -10)"/>
        <g transform="rotate(-29 235.76 -773.281)">
            <path fill="url(#b)" d="M44 64L33 32H22L9 64"/>
            <circle cx="27.5" cy="27.5" r="17.5" fill="#1831AA" fill-opacity=".158" stroke="#1831AA" stroke-width=".2"/>
            <circle cx="27.5" cy="27.5" r="27.5" fill="#1831AA" fill-opacity=".097" stroke="#1831AA" stroke-width=".2"/>
            <circle cx="27.5" cy="27.5" r="7.5" fill="#1831AA" stroke="#FFF"/>
        </g>
        <g transform="rotate(-41 887.001 126.24)">
            <path fill="url(#b)" d="M44 64L33 32H22L9 64"/>
            <circle cx="27.5" cy="27.5" r="17.5" fill="#1831AA" fill-opacity=".158" stroke="#1831AA" stroke-width=".2"/>
            <circle cx="27.5" cy="27.5" r="27.5" fill="#1831AA" fill-opacity=".097" stroke="#1831AA" stroke-width=".2"/>
            <circle cx="27.5" cy="27.5" r="7.5" fill="#1831AA" stroke="#FFF"/>
        </g>
        <g transform="rotate(-7 9069.47 576.825)">
            <path fill="url(#b)" d="M44 64L33 32H22L9 64"/>
            <circle cx="27.5" cy="27.5" r="17.5" fill="#1831AA" fill-opacity=".158" stroke="#1831AA" stroke-width=".2"/>
            <circle cx="27.5" cy="27.5" r="27.5" fill="#1831AA" fill-opacity=".097" stroke="#1831AA" stroke-width=".2"/>
            <circle cx="27.5" cy="27.5" r="7.5" fill="#1831AA" stroke="#FFF"/>
        </g>
    </g>
</svg>
