<svg xmlns="http://www.w3.org/2000/svg" width="45" height="45" viewBox="0 0 45 45">
    <g fill="#1831AA" fill-rule="evenodd">
        <circle cx="22.5" cy="22.5" r="22.5" opacity=".058"/>
        <path fill-rule="nonzero" stroke="#1831AA" stroke-width=".2" d="M32.518 21.474l-9.265-9.265c-.278-.279-.73-.279-1.008 0-.278.278-.278.73 0 1.008l8.048 8.048h-17.58c-.394 0-.713.319-.713.713 0 .394.319.713.713.713h17.58l-8.048 8.048c-.278.278-.278.73 0 1.008.14.139.322.208.504.208.183 0 .365-.07.504-.208l9.265-9.265c.278-.279.278-.73 0-1.008z"/>
    </g>
</svg>
